# xmcd CD database file
#
# Track frame offsets:
#	182
#	16035
#	36050
#	53405
#	72137
#	97450
#	119705
#	138102
#	159002
#	174745
#	201935
#	222510
#	249525
#	266472
#
# Disc length: 3703 seconds
#
# Revision: 0
# Processed by: cddbd v1.5.2PL0 Copyright (c) Steve Scherf et al.
# Submitted via: CDex 1.70beta2
#
DISCID=c30e750e
DTITLE=KHIH 95.7 - Smooth Jazz Colorado Style Vol. IV
DYEAR=1998
DGENRE=Jazz
TTITLE0=Chuck Mangione_Feels So Good
TTITLE1=Tim Weisberg_Herbie's Blues
TTITLE2=Pete Taylor_Pleasure Seeker
TTITLE3=Bobby Caldwell_Where Is Love
TTITLE4=Acoustic Alchemy_Oceans Apart
TTITLE5=Philippe Saisse_Moanin'
TTITLE6=Fattburger_Oye Coma Va
TTITLE7=Marilyn Scott_I'm Calling You
TTITLE8=Craig Chaquico_Lights Out San Francisco
TTITLE9=Warren Bernhardt_Felinicity
TTITLE10=Keiko Matsui_Safari
TTITLE11=Steve Winwood_Plenty Lovin'
TTITLE12=Count Basic_On the Move
TTITLE13=Jim Brickman_Angel Eyes
EXTD=YEAR: 1998
EXTT0=
EXTT1=
EXTT2=
EXTT3=
EXTT4=
EXTT5=
EXTT6=
EXTT7=
EXTT8=
EXTT9=
EXTT10=
EXTT11=
EXTT12=
EXTT13=
PLAYORDER=
